# Blender v2.90.1 OBJ File: ''
# www.blender.org
mtllib ratleader.mtl
o Plane
v 0.306426 1.353382 0.200000
v 0.305516 0.530417 0.200000
v 0.358288 0.529507 0.200000
v 0.222719 1.354292 0.200000
v 0.400141 0.522229 0.200000
v 0.449273 0.509491 0.200000
v 0.492947 0.494023 0.200000
v 0.530251 0.474916 0.200000
v 0.497496 0.437612 0.200000
v 0.462011 0.403037 0.200000
v 0.413789 0.367553 0.200000
v 0.371026 0.337528 0.200000
v 0.309156 0.309322 0.200000
v 0.326443 0.264739 0.200000
v 0.356468 0.164655 0.200000
v 0.384674 0.056382 0.200000
v 0.395592 -0.000029 0.200000
v -0.235757 -0.000029 0.200000
v -0.242126 0.031816 0.200000
v -0.242126 0.264739 0.200000
v -0.208461 0.500392 0.200000
v -0.219379 0.507671 0.200000
v -0.304906 0.525868 0.200000
v -0.373145 0.562262 0.200000
v -0.414089 0.611394 0.200000
v -0.435925 0.674174 0.200000
v -0.435925 0.726946 0.200000
v -0.524181 0.764250 0.200000
v -0.570584 0.802464 0.200000
v -0.609708 0.854326 0.200000
v -0.635184 0.906188 0.200000
v -0.655200 0.972607 0.200000
v -0.660659 1.030838 0.200000
v -0.603339 1.019010 0.200000
v -0.536009 1.012641 0.200000
v -0.468680 1.018100 0.200000
v -0.414089 1.041756 0.200000
v -0.374965 1.075421 0.200000
v -0.331292 1.140020 0.200000
v -0.293988 1.194612 0.200000
v -0.246675 1.235555 0.200000
v -0.181166 1.267400 0.200000
v -0.114746 1.281048 0.200000
v -0.034679 1.290147 0.200000
v 0.098160 1.288327 0.200000
v 0.169129 1.281958 0.200000
v 0.221901 1.272859 0.200000
v 0.306426 1.353382 -0.200000
v 0.305516 0.530417 -0.200000
v 0.358288 0.529507 -0.200000
v 0.222719 1.354292 -0.200000
v 0.400141 0.522229 -0.200000
v 0.449273 0.509491 -0.200000
v 0.492947 0.494023 -0.200000
v 0.530251 0.474916 -0.200000
v 0.497496 0.437612 -0.200000
v 0.462011 0.403037 -0.200000
v 0.413789 0.367553 -0.200000
v 0.371026 0.337528 -0.200000
v 0.309156 0.309322 -0.200000
v 0.326443 0.264739 -0.200000
v 0.356468 0.164655 -0.200000
v 0.384674 0.056382 -0.200000
v 0.395592 -0.000029 -0.200000
v -0.235757 -0.000029 -0.200000
v -0.242126 0.031816 -0.200000
v -0.242126 0.264739 -0.200000
v -0.208461 0.500392 -0.200000
v -0.219379 0.507671 -0.200000
v -0.304906 0.525868 -0.200000
v -0.373145 0.562262 -0.200000
v -0.414089 0.611394 -0.200000
v -0.435925 0.674174 -0.200000
v -0.435925 0.726946 -0.200000
v -0.524181 0.764250 -0.200000
v -0.570584 0.802464 -0.200000
v -0.609708 0.854326 -0.200000
v -0.635184 0.906188 -0.200000
v -0.655200 0.972607 -0.200000
v -0.660659 1.030838 -0.200000
v -0.603339 1.019010 -0.200000
v -0.536009 1.012641 -0.200000
v -0.468680 1.018100 -0.200000
v -0.414089 1.041756 -0.200000
v -0.374965 1.075421 -0.200000
v -0.331292 1.140020 -0.200000
v -0.293988 1.194612 -0.200000
v -0.246675 1.235555 -0.200000
v -0.181166 1.267400 -0.200000
v -0.114746 1.281048 -0.200000
v -0.034679 1.290147 -0.200000
v 0.098160 1.288327 -0.200000
v 0.169129 1.281958 -0.200000
v 0.221901 1.272859 -0.200000
v 0.358288 0.529507 0.200000
v 0.400141 0.522229 0.200000
v 0.306426 1.353382 0.200000
v 0.306426 1.353382 0.200000
v 0.305516 0.530417 0.200000
v 0.305516 0.530417 0.200000
v 0.222719 1.354292 0.200000
v 0.222719 1.354292 0.200000
v 0.449273 0.509491 0.200000
v 0.492947 0.494023 0.200000
v 0.530251 0.474916 0.200000
v 0.530251 0.474916 0.200000
v 0.497496 0.437612 0.200000
v 0.462011 0.403037 0.200000
v 0.413789 0.367553 0.200000
v 0.371026 0.337528 0.200000
v 0.309156 0.309322 0.200000
v 0.309156 0.309322 0.200000
v 0.326443 0.264739 0.200000
v 0.356468 0.164655 0.200000
v 0.384674 0.056382 0.200000
v 0.395592 -0.000029 0.200000
v 0.395592 -0.000029 0.200000
v -0.235757 -0.000029 0.200000
v -0.235757 -0.000029 0.200000
v -0.242126 0.031816 0.200000
v -0.242126 0.264739 0.200000
v -0.208461 0.500392 0.200000
v -0.208461 0.500392 0.200000
v -0.219379 0.507671 0.200000
v -0.304906 0.525868 0.200000
v -0.373145 0.562262 0.200000
v -0.414089 0.611394 0.200000
v -0.435925 0.674174 0.200000
v -0.435925 0.726946 0.200000
v -0.435925 0.726946 0.200000
v -0.524181 0.764250 0.200000
v -0.570584 0.802464 0.200000
v -0.609708 0.854326 0.200000
v -0.635184 0.906188 0.200000
v -0.655200 0.972607 0.200000
v -0.660659 1.030838 0.200000
v -0.660659 1.030838 0.200000
v -0.603339 1.019010 0.200000
v -0.536009 1.012641 0.200000
v -0.468680 1.018100 0.200000
v -0.414089 1.041756 0.200000
v -0.374965 1.075421 0.200000
v -0.331292 1.140020 0.200000
v -0.293988 1.194612 0.200000
v -0.246675 1.235555 0.200000
v -0.181166 1.267400 0.200000
v -0.114746 1.281048 0.200000
v -0.034679 1.290147 0.200000
v 0.098160 1.288327 0.200000
v 0.169129 1.281958 0.200000
v 0.221901 1.272859 0.200000
v 0.221901 1.272859 0.200000
v 0.358288 0.529507 -0.200000
v 0.400141 0.522229 -0.200000
v 0.306426 1.353382 -0.200000
v 0.306426 1.353382 -0.200000
v 0.305516 0.530417 -0.200000
v 0.305516 0.530417 -0.200000
v 0.222719 1.354292 -0.200000
v 0.222719 1.354292 -0.200000
v 0.449273 0.509491 -0.200000
v 0.492947 0.494023 -0.200000
v 0.530251 0.474916 -0.200000
v 0.530251 0.474916 -0.200000
v 0.497496 0.437612 -0.200000
v 0.462011 0.403037 -0.200000
v 0.413789 0.367553 -0.200000
v 0.371026 0.337528 -0.200000
v 0.309156 0.309322 -0.200000
v 0.309156 0.309322 -0.200000
v 0.326443 0.264739 -0.200000
v 0.356468 0.164655 -0.200000
v 0.384674 0.056382 -0.200000
v 0.395592 -0.000029 -0.200000
v 0.395592 -0.000029 -0.200000
v -0.235757 -0.000029 -0.200000
v -0.235757 -0.000029 -0.200000
v -0.242126 0.031816 -0.200000
v -0.242126 0.264739 -0.200000
v -0.208461 0.500392 -0.200000
v -0.208461 0.500392 -0.200000
v -0.219379 0.507671 -0.200000
v -0.304906 0.525868 -0.200000
v -0.373145 0.562262 -0.200000
v -0.414089 0.611394 -0.200000
v -0.435925 0.674174 -0.200000
v -0.435925 0.726946 -0.200000
v -0.435925 0.726946 -0.200000
v -0.524181 0.764250 -0.200000
v -0.570584 0.802464 -0.200000
v -0.609708 0.854326 -0.200000
v -0.635184 0.906188 -0.200000
v -0.655200 0.972607 -0.200000
v -0.660659 1.030838 -0.200000
v -0.660659 1.030838 -0.200000
v -0.603339 1.019010 -0.200000
v -0.536009 1.012641 -0.200000
v -0.468680 1.018100 -0.200000
v -0.414089 1.041756 -0.200000
v -0.374965 1.075421 -0.200000
v -0.331292 1.140020 -0.200000
v -0.293988 1.194612 -0.200000
v -0.246675 1.235555 -0.200000
v -0.181166 1.267400 -0.200000
v -0.114746 1.281048 -0.200000
v -0.034679 1.290147 -0.200000
v 0.098160 1.288327 -0.200000
v 0.169129 1.281958 -0.200000
v 0.221901 1.272859 -0.200000
v 0.221901 1.272859 -0.200000
vt 0.327510 0.723435
vt 0.518519 0.845170
vt 0.352025 0.760059
vt 0.293292 0.525874
vt 0.305549 0.460364
vt 0.293292 0.495956
vt 0.217706 0.568687
vt 0.195745 0.598089
vt 0.195745 0.598089
vt 0.753909 0.145710
vt 0.760038 0.113729
vt 0.760038 0.113729
vt 0.473576 0.840012
vt 0.518519 0.845170
vt 0.518519 0.845170
vt 0.663001 0.881536
vt 0.709988 0.881020
vt 0.709988 0.881020
vt 0.181445 0.627491
vt 0.181445 0.627491
vt 0.760038 0.113729
vt 0.405650 0.113729
vt 0.405650 0.113729
vt 0.593084 0.844138
vt 0.593084 0.844138
vt 0.709477 0.414455
vt 0.739099 0.413940
vt 0.739099 0.413940
vt 0.170209 0.665147
vt 0.170209 0.665147
vt 0.405650 0.113729
vt 0.402075 0.131783
vt 0.402075 0.131783
vt 0.632920 0.840528
vt 0.632920 0.840528
vt 0.762592 0.409813
vt 0.790170 0.402591
vt 0.790170 0.402591
vt 0.167145 0.698160
vt 0.167145 0.698160
vt 0.402075 0.263834
vt 0.402075 0.263834
vt 0.662542 0.835369
vt 0.662542 0.835369
vt 0.814685 0.393822
vt 0.814685 0.393822
vt 0.167145 0.698160
vt 0.199320 0.691454
vt 0.199320 0.691454
vt 0.420972 0.397433
vt 0.420972 0.397433
vt 0.662542 0.835369
vt 0.663001 0.881536
vt 0.663001 0.881536
vt 0.835624 0.382990
vt 0.835624 0.382990
vt 0.237113 0.687843
vt 0.237113 0.687843
vt 0.420972 0.397433
vt 0.414843 0.401560
vt 0.414843 0.401560
vt 0.835624 0.382990
vt 0.817239 0.361841
vt 0.817239 0.361841
vt 0.274906 0.690938
vt 0.274906 0.690938
vt 0.366836 0.411876
vt 0.366836 0.411876
vt 0.797320 0.342240
vt 0.797320 0.342240
vt 0.305549 0.704350
vt 0.305549 0.704350
vt 0.328532 0.432509
vt 0.328532 0.432509
vt 0.770252 0.322123
vt 0.770252 0.322122
vt 0.327510 0.723435
vt 0.327510 0.723435
vt 0.305549 0.460364
vt 0.305549 0.460364
vt 0.746249 0.305100
vt 0.746249 0.305100
vt 0.352025 0.760059
vt 0.352025 0.760059
vt 0.293292 0.495956
vt 0.293292 0.495956
vt 0.711520 0.289110
vt 0.711520 0.289110
vt 0.372964 0.791008
vt 0.372964 0.791008
vt 0.293292 0.525874
vt 0.293292 0.525874
vt 0.711520 0.289110
vt 0.721223 0.263834
vt 0.721223 0.263834
vt 0.399522 0.814220
vt 0.399522 0.814220
vt 0.293292 0.525874
vt 0.243752 0.547023
vt 0.243752 0.547023
vt 0.738077 0.207093
vt 0.738077 0.207093
vt 0.436293 0.832274
vt 0.436293 0.832274
vt 0.762592 0.409813
vt 0.217706 0.568687
vt 0.753909 0.145710
vt 0.473576 0.840012
vt 0.709988 0.881020
vt 0.709477 0.414455
vt 0.709477 0.414455
vt 0.709477 0.414455
vt 0.746249 0.305100
vt 0.739099 0.413940
vt 0.770252 0.322123
vt 0.762592 0.409813
vt 0.797320 0.342240
vt 0.790170 0.402591
vt 0.817239 0.361841
vt 0.814685 0.393822
vt 0.835624 0.382990
vt 0.711520 0.289110
vt 0.402075 0.263834
vt 0.721223 0.263834
vt 0.402075 0.131783
vt 0.738077 0.207093
vt 0.420972 0.397433
vt 0.405650 0.113729
vt 0.753909 0.145710
vt 0.760038 0.113729
vt 0.414843 0.401560
vt 0.293292 0.525874
vt 0.366836 0.411876
vt 0.328532 0.432509
vt 0.305549 0.460364
vt 0.293292 0.495956
vt 0.593084 0.844138
vt 0.274906 0.690938
vt 0.243752 0.547023
vt 0.217706 0.568687
vt 0.237113 0.687843
vt 0.195745 0.598089
vt 0.181445 0.627491
vt 0.199320 0.691454
vt 0.170209 0.665147
vt 0.167145 0.698160
vt 0.663001 0.881536
vt 0.662542 0.835369
vt 0.709988 0.881020
vt 0.632920 0.840528
vt 0.305549 0.704350
vt 0.473576 0.840012
vt 0.399522 0.814220
vt 0.436293 0.832274
vt 0.372964 0.791008
vt 0.762592 0.409813
vt 0.770252 0.322122
vt 0.739099 0.413940
vt 0.746249 0.305100
vt 0.709477 0.414455
vt 0.662542 0.835369
vt 0.709988 0.881020
vt 0.663001 0.881536
vt 0.632920 0.840528
vt 0.593084 0.844138
vt 0.790170 0.402591
vt 0.797320 0.342240
vt 0.835624 0.382990
vt 0.817239 0.361841
vt 0.814685 0.393822
vt 0.738077 0.207093
vt 0.402075 0.131783
vt 0.721223 0.263834
vt 0.402075 0.263834
vt 0.711520 0.289110
vt 0.405650 0.113729
vt 0.753909 0.145710
vt 0.420972 0.397433
vt 0.518519 0.845170
vt 0.414843 0.401560
vt 0.352025 0.760059
vt 0.473576 0.840012
vt 0.436293 0.832274
vt 0.327510 0.723435
vt 0.399522 0.814220
vt 0.372964 0.791008
vt 0.760038 0.113729
vt 0.305549 0.704350
vt 0.274906 0.690938
vt 0.328532 0.432509
vt 0.366836 0.411876
vt 0.217706 0.568687
vt 0.237113 0.687843
vt 0.199320 0.691454
vt 0.170209 0.665147
vt 0.167145 0.698160
vt 0.181445 0.627491
vt 0.243752 0.547023
vt 0.195745 0.598089
vt 0.663001 0.881536
vt 0.760038 0.113729
vt 0.709477 0.414455
vt 0.405650 0.113729
vt 0.167145 0.698160
vt 0.662542 0.835369
vt 0.420972 0.397433
vt 0.835624 0.382990
vt 0.711520 0.289110
vt 0.293292 0.525874
vt 0.709988 0.881020
vn 0.0000 0.0000 1.0000
vn 0.0000 0.0000 -1.0000
vn -0.7983 -0.6022 0.0000
vn 0.9818 0.1900 0.0000
vn -0.1129 0.9936 0.0000
vn 0.0109 0.9999 0.0000
vn -0.8976 -0.4409 0.0000
vn 0.0000 -1.0000 0.0000
vn 0.0137 0.9999 0.0000
vn 0.0172 0.9999 0.0000
vn -0.9575 -0.2886 0.0000
vn -0.9806 -0.1961 0.0000
vn 0.0894 0.9960 0.0000
vn 0.2510 0.9680 0.0000
vn -0.9956 -0.0933 0.0000
vn -1.0000 0.0000 0.0000
vn 0.1699 0.9855 0.0000
vn 0.3338 0.9426 0.0000
vn 0.2021 0.9794 0.0000
vn -0.9899 0.1414 0.0000
vn -0.9999 0.0101 0.0000
vn 0.4559 0.8900 0.0000
vn 0.0942 0.9956 0.0000
vn -0.5547 -0.8321 0.0000
vn 0.7514 -0.6598 0.0000
vn -0.0808 0.9967 0.0000
vn -0.2081 -0.9781 0.0000
vn 0.6979 -0.7162 0.0000
vn -0.3976 0.9176 0.0000
vn -0.4706 -0.8824 0.0000
vn 0.5927 -0.8054 0.0000
vn -0.6522 0.7580 0.0000
vn -0.7682 -0.6402 0.0000
vn 0.5746 -0.8184 0.0000
vn -0.8284 0.5601 0.0000
vn -0.9445 -0.3285 0.0000
vn 0.4148 -0.9099 0.0000
vn -0.8256 0.5642 0.0000
vn 0.9324 0.3615 0.0000
vn -0.6544 0.7562 0.0000
vn -0.3893 -0.9211 0.0000
vn 0.9578 0.2873 0.0000
vn -0.4372 0.8994 0.0000
vn 0.1713 0.9852 0.0000
vn -0.6357 -0.7719 0.0000
vn 0.9677 0.2521 0.0000
vn -0.2013 0.9795 0.0000
vn 1.0000 -0.0011 0.0000
usemtl None
s off
f 38/1/1 44/2/1 143/3/1
f 187/4/2 185/5/2 186/6/2
f 132/7/3 133/8/3 77/9/3
f 115/10/4 116/11/4 175/12/4
f 147/13/5 148/14/5 91/15/5
f 101/16/6 98/17/6 156/18/6
f 133/8/7 134/19/7 78/20/7
f 117/21/8 118/22/8 177/23/8
f 148/14/9 149/24/9 92/25/9
f 100/26/10 95/27/10 50/28/10
f 134/19/11 135/29/11 79/30/11
f 119/31/12 120/32/12 66/33/12
f 149/24/13 150/34/13 93/35/13
f 96/36/14 103/37/14 53/38/14
f 135/29/15 136/39/15 195/40/15
f 20/41/16 179/42/16 66/33/16
f 150/34/17 151/43/17 210/44/17
f 103/37/18 104/45/18 54/46/18
f 137/47/19 138/48/19 81/49/19
f 21/50/20 180/51/20 179/42/20
f 152/52/21 102/53/21 160/54/21
f 104/45/22 105/55/22 164/56/22
f 138/48/23 139/57/23 82/58/23
f 123/59/24 124/60/24 69/61/24
f 106/62/25 107/63/25 56/64/25
f 139/57/26 140/65/26 83/66/26
f 124/60/27 125/67/27 70/68/27
f 107/63/28 108/69/28 57/70/28
f 140/65/29 141/71/29 84/72/29
f 125/67/30 126/73/30 71/74/30
f 108/69/31 109/75/31 58/76/31
f 141/71/32 142/77/32 85/78/32
f 126/73/33 127/79/33 72/80/33
f 109/75/34 110/81/34 59/82/34
f 142/77/35 39/83/35 86/84/35
f 127/79/36 128/85/36 73/86/36
f 110/81/37 111/87/37 170/88/37
f 39/83/38 144/89/38 87/90/38
f 128/85/16 129/91/16 188/92/16
f 112/93/39 113/94/39 61/95/39
f 144/89/40 145/96/40 88/97/40
f 130/98/41 131/99/41 75/100/41
f 113/94/42 114/101/42 62/102/42
f 145/96/43 146/103/43 89/104/43
f 95/27/44 96/36/44 52/105/44
f 131/99/45 132/7/45 76/106/45
f 114/101/46 115/10/46 63/107/46
f 146/103/47 147/13/47 90/108/47
f 97/109/48 99/110/48 158/111/48
f 2/112/1 12/113/1 3/114/1
f 3/114/1 11/115/1 5/116/1
f 5/116/1 10/117/1 6/118/1
f 6/118/1 9/119/1 7/120/1
f 7/120/1 9/119/1 8/121/1
f 9/119/1 6/118/1 10/117/1
f 10/117/1 5/116/1 11/115/1
f 11/115/1 3/114/1 12/113/1
f 12/113/1 2/112/1 13/122/1
f 13/122/1 121/123/1 14/124/1
f 14/124/1 19/125/1 15/126/1
f 13/122/1 2/112/1 122/127/1
f 15/126/1 18/128/1 16/129/1
f 16/129/1 18/128/1 17/130/1
f 15/126/1 19/125/1 18/128/1
f 19/125/1 14/124/1 121/123/1
f 121/123/1 13/122/1 122/127/1
f 22/131/1 27/132/1 23/133/1
f 23/133/1 27/132/1 24/134/1
f 27/132/1 25/135/1 24/134/1
f 27/132/1 26/136/1 25/135/1
f 122/127/1 44/2/1 22/131/1
f 2/112/1 45/137/1 122/127/1
f 27/132/1 36/138/1 28/139/1
f 28/139/1 36/138/1 29/140/1
f 29/140/1 35/141/1 30/142/1
f 30/142/1 35/141/1 31/143/1
f 29/140/1 36/138/1 35/141/1
f 31/143/1 34/144/1 32/145/1
f 32/145/1 34/144/1 33/146/1
f 22/131/1 38/1/1 27/132/1
f 4/147/1 47/148/1 1/149/1
f 1/149/1 47/148/1 2/112/1
f 45/137/1 2/112/1 46/150/1
f 46/150/1 2/112/1 47/148/1
f 45/137/1 44/2/1 122/127/1
f 31/143/1 35/141/1 34/144/1
f 38/1/1 37/151/1 27/132/1
f 37/151/1 36/138/1 27/132/1
f 43/152/1 143/3/1 44/2/1
f 38/1/1 22/131/1 44/2/1
f 41/153/1 143/3/1 42/154/1
f 42/154/1 143/3/1 43/152/1
f 143/3/1 41/153/1 40/155/1
f 154/156/2 167/157/2 153/158/2
f 153/158/2 168/159/2 157/160/2
f 167/157/2 168/159/2 153/158/2
f 157/160/2 209/161/2 155/162/2
f 155/162/2 209/161/2 159/163/2
f 209/161/2 157/160/2 208/164/2
f 208/164/2 157/160/2 207/165/2
f 161/166/2 166/167/2 154/156/2
f 166/167/2 167/157/2 154/156/2
f 163/168/2 165/169/2 162/170/2
f 162/170/2 165/169/2 161/166/2
f 166/167/2 161/166/2 165/169/2
f 172/171/2 178/172/2 171/173/2
f 171/173/2 67/174/2 169/175/2
f 172/171/2 176/176/2 178/172/2
f 169/175/2 157/160/2 168/159/2
f 173/177/2 176/176/2 172/171/2
f 157/160/2 181/178/2 207/165/2
f 207/165/2 181/178/2 206/179/2
f 181/178/2 182/180/2 206/179/2
f 206/179/2 201/181/2 205/182/2
f 205/182/2 201/181/2 204/183/2
f 206/179/2 200/184/2 201/181/2
f 204/183/2 201/181/2 203/185/2
f 203/185/2 201/181/2 202/186/2
f 174/187/2 176/176/2 173/177/2
f 169/175/2 181/178/2 157/160/2
f 206/179/2 182/180/2 200/184/2
f 178/172/2 67/174/2 171/173/2
f 181/178/2 169/175/2 67/174/2
f 200/184/2 187/4/2 199/188/2
f 182/180/2 187/4/2 200/184/2
f 199/188/2 187/4/2 198/189/2
f 184/190/2 187/4/2 183/191/2
f 183/191/2 187/4/2 182/180/2
f 184/190/2 185/5/2 187/4/2
f 198/189/2 190/192/2 197/193/2
f 196/194/2 193/195/2 194/196/2
f 197/193/2 192/197/2 196/194/2
f 187/4/2 189/198/2 198/189/2
f 198/189/2 189/198/2 190/192/2
f 196/194/2 192/197/2 193/195/2
f 192/197/2 197/193/2 191/199/2
f 191/199/2 197/193/2 190/192/2
f 132/7/3 77/9/3 76/106/3
f 115/10/4 175/12/4 63/107/4
f 147/13/5 91/15/5 90/108/5
f 101/16/6 156/18/6 51/200/6
f 133/8/7 78/20/7 77/9/7
f 117/21/8 177/23/8 64/201/8
f 148/14/9 92/25/9 91/15/9
f 100/26/10 50/28/10 49/202/10
f 134/19/11 79/30/11 78/20/11
f 119/31/12 66/33/12 65/203/12
f 149/24/13 93/35/13 92/25/13
f 96/36/14 53/38/14 52/105/14
f 135/29/15 195/40/15 79/30/15
f 20/41/16 66/33/16 120/32/16
f 150/34/17 210/44/17 93/35/17
f 103/37/18 54/46/18 53/38/18
f 137/47/19 81/49/19 80/204/19
f 21/50/20 179/42/20 20/41/20
f 152/52/21 160/54/21 94/205/21
f 104/45/22 164/56/22 54/46/22
f 138/48/23 82/58/23 81/49/23
f 123/59/24 69/61/24 68/206/24
f 106/62/25 56/64/25 55/207/25
f 139/57/26 83/66/26 82/58/26
f 124/60/27 70/68/27 69/61/27
f 107/63/28 57/70/28 56/64/28
f 140/65/29 84/72/29 83/66/29
f 125/67/30 71/74/30 70/68/30
f 108/69/31 58/76/31 57/70/31
f 141/71/32 85/78/32 84/72/32
f 126/73/33 72/80/33 71/74/33
f 109/75/34 59/82/34 58/76/34
f 142/77/35 86/84/35 85/78/35
f 127/79/36 73/86/36 72/80/36
f 110/81/37 170/88/37 59/82/37
f 39/83/38 87/90/38 86/84/38
f 128/85/16 188/92/16 73/86/16
f 112/93/39 61/95/39 60/208/39
f 144/89/40 88/97/40 87/90/40
f 130/98/41 75/100/41 74/209/41
f 113/94/42 62/102/42 61/95/42
f 145/96/43 89/104/43 88/97/43
f 95/27/44 52/105/44 50/28/44
f 131/99/45 76/106/45 75/100/45
f 114/101/46 63/107/46 62/102/46
f 146/103/47 90/108/47 89/104/47
f 97/109/48 158/111/48 48/210/48
