# Blender v2.81 (sub 16) OBJ File: ''
# www.blender.org
mtllib Thief_Ronin_Meeple.mtl
o Curve_CUCurve.005
v -0.011285 0.220549 0.096287
v 0.112111 0.342449 0.096287
v -0.148823 0.321383 0.096287
v -0.133211 0.340981 0.096287
v 0.130337 0.320310 0.096287
v -0.162006 0.301082 0.096287
v 0.147734 0.293616 0.096287
v -0.181906 0.260203 0.096287
v 0.165865 0.257375 0.096287
v -0.194542 0.222017 0.096287
v 0.181140 0.212240 0.096287
v -0.201546 0.190196 0.096287
v 0.189967 0.158864 0.096287
v -0.205192 0.160333 0.096287
v -0.219790 0.155176 0.096287
v 0.191547 0.158309 0.096287
v 0.195993 0.156627 0.096287
v 0.202867 0.153793 0.096287
v -0.234082 0.148087 0.096287
v 0.211730 0.149780 0.096287
v 0.233670 0.138119 0.096287
v -0.261013 0.129926 0.096287
v 0.258303 0.121440 0.096287
v 0.270532 0.111155 0.096287
v -0.284517 0.109480 0.096287
v 0.282119 0.099539 0.096287
v 0.292625 0.086566 0.096287
v 0.301611 0.072212 0.096287
v -0.319773 0.070743 0.096287
v -0.312533 0.058519 0.096287
v 0.289750 0.054642 0.096287
v -0.303594 0.046877 0.096287
v 0.275353 0.037147 0.096287
v -0.282395 0.025704 0.096287
v 0.255691 0.017816 0.096287
v -0.259728 0.007957 0.096287
v 0.231051 -0.000372 0.096287
v 0.216954 -0.008108 0.096287
v 0.201719 -0.014440 0.096287
v 0.202183 -0.018325 0.096287
v -0.218413 -0.017378 0.096287
v -0.223253 -0.034303 0.096287
v 0.203467 -0.029236 0.096287
v 0.205415 -0.046063 0.096287
v -0.227512 -0.056339 0.096287
v 0.207867 -0.067694 0.096287
v -0.231220 -0.082229 0.096287
v 0.210667 -0.093017 0.096287
v -0.234408 -0.110721 0.096287
v 0.213655 -0.120920 0.096287
v -0.237107 -0.140558 0.096287
v 0.216674 -0.150292 0.096287
v -0.239346 -0.170488 0.096287
v 0.219565 -0.180021 0.096287
v -0.241157 -0.199255 0.096287
v 0.222170 -0.208995 0.096287
v 0.224332 -0.236103 0.096287
v -0.243615 -0.248282 0.096287
v 0.225892 -0.260232 0.096287
v 0.226692 -0.280272 0.096287
v -0.244855 -0.281741 0.096287
v -0.237107 -0.140558 -0.091312
v -0.239346 -0.170488 -0.091312
v 0.225892 -0.260232 -0.091312
v 0.224332 -0.236103 -0.091312
v 0.222170 -0.208995 -0.091312
v 0.289750 0.054642 -0.091312
v -0.241157 -0.199255 -0.091312
v -0.205192 0.160333 -0.091312
v -0.219790 0.155176 -0.091312
v -0.244855 -0.281741 -0.091312
v 0.211730 0.149780 -0.091312
v 0.202867 0.153793 -0.091312
v 0.213655 -0.120920 -0.091312
v 0.210667 -0.093017 -0.091312
v 0.219565 -0.180021 -0.091312
v 0.216674 -0.150292 -0.091312
v 0.130337 0.320310 -0.091312
v -0.259728 0.007957 -0.091312
v -0.011285 0.220549 -0.091312
v -0.243615 -0.248282 -0.091312
v 0.292625 0.086566 -0.091312
v 0.282119 0.099539 -0.091312
v 0.181140 0.212240 -0.091312
v 0.226692 -0.280272 -0.091312
v -0.194542 0.222017 -0.091312
v -0.201546 0.190196 -0.091312
v -0.181906 0.260203 -0.091312
v 0.205415 -0.046063 -0.091312
v 0.203467 -0.029236 -0.091312
v 0.255691 0.017816 -0.091312
v 0.195993 0.156627 -0.091312
v 0.165865 0.257375 -0.091312
v 0.301611 0.072212 -0.091312
v -0.133211 0.340981 -0.091312
v -0.261013 0.129926 -0.091312
v -0.231220 -0.082229 -0.091312
v -0.234408 -0.110721 -0.091312
v -0.162006 0.301082 -0.091312
v 0.202183 -0.018325 -0.091312
v 0.201719 -0.014440 -0.091312
v 0.233670 0.138119 -0.091312
v -0.284517 0.109480 -0.091312
v -0.218413 -0.017378 -0.091312
v -0.223253 -0.034303 -0.091312
v 0.270532 0.111155 -0.091312
v 0.207867 -0.067694 -0.091312
v 0.147734 0.293616 -0.091312
v 0.191547 0.158309 -0.091312
v 0.189967 0.158864 -0.091312
v -0.227512 -0.056339 -0.091312
v -0.319773 0.070743 -0.091312
v -0.312533 0.058519 -0.091312
v 0.112111 0.342449 -0.091312
v 0.216954 -0.008108 -0.091312
v 0.231051 -0.000372 -0.091312
v 0.275353 0.037147 -0.091312
v -0.148823 0.321383 -0.091312
v -0.303594 0.046877 -0.091312
v -0.234082 0.148087 -0.091312
v -0.282395 0.025704 -0.091312
v 0.258303 0.121440 -0.091312
v -0.011285 0.220549 0.096287
v -0.011285 0.220549 0.096287
v 0.112111 0.342449 0.096287
v 0.112111 0.342449 0.096287
v -0.148823 0.321383 0.096287
v -0.133211 0.340981 0.096287
v -0.133211 0.340981 0.096287
v 0.130337 0.320310 0.096287
v -0.162006 0.301082 0.096287
v 0.147734 0.293616 0.096287
v -0.181906 0.260203 0.096287
v 0.165865 0.257375 0.096287
v -0.194542 0.222017 0.096287
v 0.181140 0.212240 0.096287
v -0.201546 0.190196 0.096287
v 0.189967 0.158864 0.096287
v 0.189967 0.158864 0.096287
v -0.205192 0.160333 0.096287
v -0.205192 0.160333 0.096287
v -0.219790 0.155176 0.096287
v 0.191547 0.158309 0.096287
v 0.195993 0.156627 0.096287
v 0.202867 0.153793 0.096287
v -0.234082 0.148087 0.096287
v 0.211730 0.149780 0.096287
v 0.233670 0.138119 0.096287
v -0.261013 0.129926 0.096287
v 0.258303 0.121440 0.096287
v 0.270532 0.111155 0.096287
v -0.284517 0.109480 0.096287
v 0.282119 0.099539 0.096287
v 0.292625 0.086566 0.096287
v 0.301611 0.072212 0.096287
v 0.301611 0.072212 0.096287
v -0.319773 0.070743 0.096287
v -0.319773 0.070743 0.096287
v -0.312533 0.058519 0.096287
v 0.289750 0.054642 0.096287
v -0.303594 0.046877 0.096287
v 0.275353 0.037147 0.096287
v -0.282395 0.025704 0.096287
v 0.255691 0.017816 0.096287
v -0.259728 0.007957 0.096287
v 0.231051 -0.000372 0.096287
v 0.216954 -0.008108 0.096287
v 0.201719 -0.014440 0.096287
v 0.201719 -0.014440 0.096287
v 0.202183 -0.018325 0.096287
v -0.218413 -0.017378 0.096287
v -0.218413 -0.017378 0.096287
v -0.223253 -0.034303 0.096287
v 0.203467 -0.029236 0.096287
v 0.205415 -0.046063 0.096287
v -0.227512 -0.056339 0.096287
v 0.207867 -0.067694 0.096287
v -0.231220 -0.082229 0.096287
v 0.210667 -0.093017 0.096287
v -0.234408 -0.110721 0.096287
v 0.213655 -0.120920 0.096287
v -0.237107 -0.140558 0.096287
v 0.216674 -0.150292 0.096287
v -0.239346 -0.170488 0.096287
v 0.219565 -0.180021 0.096287
v -0.241157 -0.199255 0.096287
v 0.222170 -0.208995 0.096287
v 0.224332 -0.236103 0.096287
v -0.243615 -0.248282 0.096287
v 0.225892 -0.260232 0.096287
v 0.226692 -0.280272 0.096287
v 0.226692 -0.280272 0.096287
v -0.244855 -0.281741 0.096287
v -0.244855 -0.281741 0.096287
v -0.237107 -0.140558 -0.091312
v -0.239346 -0.170488 -0.091312
v 0.225892 -0.260232 -0.091312
v 0.224332 -0.236103 -0.091312
v 0.222170 -0.208995 -0.091312
v -0.241157 -0.199255 -0.091312
v -0.205192 0.160333 -0.091312
v -0.205192 0.160333 -0.091312
v -0.219790 0.155176 -0.091312
v -0.244855 -0.281741 -0.091312
v -0.244855 -0.281741 -0.091312
v 0.211730 0.149780 -0.091312
v 0.202867 0.153793 -0.091312
v 0.213655 -0.120920 -0.091312
v 0.210667 -0.093017 -0.091312
v 0.219565 -0.180021 -0.091312
v 0.216674 -0.150292 -0.091312
v -0.011285 0.220549 -0.091312
v -0.011285 0.220549 -0.091312
v 0.292625 0.086566 -0.091312
v 0.282119 0.099539 -0.091312
v 0.226692 -0.280272 -0.091312
v 0.226692 -0.280272 -0.091312
v -0.194542 0.222017 -0.091312
v -0.201546 0.190196 -0.091312
v 0.205415 -0.046063 -0.091312
v 0.203467 -0.029236 -0.091312
v 0.195993 0.156627 -0.091312
v 0.301611 0.072212 -0.091312
v 0.301611 0.072212 -0.091312
v -0.133211 0.340981 -0.091312
v -0.133211 0.340981 -0.091312
v -0.231220 -0.082229 -0.091312
v -0.234408 -0.110721 -0.091312
v -0.181906 0.260203 -0.091312
v -0.162006 0.301082 -0.091312
v 0.201719 -0.014440 -0.091312
v 0.201719 -0.014440 -0.091312
v 0.202183 -0.018325 -0.091312
v 0.233670 0.138119 -0.091312
v -0.243615 -0.248282 -0.091312
v -0.261013 0.129926 -0.091312
v -0.284517 0.109480 -0.091312
v -0.218413 -0.017378 -0.091312
v -0.218413 -0.017378 -0.091312
v -0.223253 -0.034303 -0.091312
v 0.270532 0.111155 -0.091312
v 0.207867 -0.067694 -0.091312
v 0.165865 0.257375 -0.091312
v 0.147734 0.293616 -0.091312
v 0.189967 0.158864 -0.091312
v 0.189967 0.158864 -0.091312
v 0.191547 0.158309 -0.091312
v -0.227512 -0.056339 -0.091312
v -0.319773 0.070743 -0.091312
v -0.319773 0.070743 -0.091312
v -0.312533 0.058519 -0.091312
v 0.112111 0.342449 -0.091312
v 0.112111 0.342449 -0.091312
v 0.216954 -0.008108 -0.091312
v 0.231051 -0.000372 -0.091312
v 0.289750 0.054642 -0.091312
v 0.275353 0.037147 -0.091312
v 0.130337 0.320310 -0.091312
v -0.148823 0.321383 -0.091312
v 0.181140 0.212240 -0.091312
v -0.303594 0.046877 -0.091312
v 0.255691 0.017816 -0.091312
v -0.259728 0.007957 -0.091312
v -0.282395 0.025704 -0.091312
v -0.234082 0.148087 -0.091312
v 0.258303 0.121440 -0.091312
vt 0.150952 0.961479
vt 0.000000 0.603774
vt 0.150952 0.603774
vt 0.150953 0.765914
vt 0.301905 0.741287
vt 0.301905 0.765914
vt 0.801905 0.606707
vt 0.801905 0.614932
vt 0.650952 0.614932
vt 0.150953 0.830460
vt 0.301905 0.794073
vt 0.301905 0.830460
vt 0.301905 0.741287
vt 0.150953 0.728459
vt 0.301905 0.728459
vt 0.500000 0.890041
vt 0.650952 0.917641
vt 0.500000 0.917641
vt 0.650952 0.738481
vt 0.650952 0.739957
vt 0.500000 0.738481
vt 0.500000 0.619692
vt 0.650952 0.635743
vt 0.500000 0.635743
vt 0.500000 0.695497
vt 0.650952 0.718654
vt 0.500000 0.718654
vt 0.486934 0.818212
vt 0.349047 1.000000
vt 0.349047 0.818212
vt 0.883354 0.617968
vt 0.859003 0.799757
vt 0.859003 0.617968
vt 0.500000 0.667089
vt 0.650952 0.695497
vt 0.828473 0.981545
vt 0.789748 0.799757
vt 0.828473 0.799757
vt 0.851637 0.799757
vt 0.500000 0.859960
vt 0.650952 0.890041
vt 0.836818 0.617968
vt 0.818665 0.799756
vt 0.818665 0.617968
vt 0.500000 0.754098
vt 0.500000 0.792366
vt 0.349048 0.754098
vt 0.801905 0.799757
vt 0.801905 0.617968
vt 0.349047 0.603774
vt 0.500000 0.619436
vt 0.349047 0.619436
vt 0.650952 0.651638
vt 0.500000 0.651638
vt 0.500000 0.822955
vt 0.650952 0.859960
vt 0.836818 0.799756
vt 0.875582 0.799757
vt 0.851637 0.981545
vt 0.500000 0.638571
vt 0.349047 0.638572
vt 0.897702 0.799757
vt 0.887033 0.981545
vt 0.887033 0.799757
vt 0.789748 0.799757
vt 0.650952 0.981545
vt 0.650952 0.799757
vt 0.301905 0.714369
vt 0.150952 0.684219
vt 0.301905 0.684219
vt 0.150953 0.654461
vt 0.301905 0.603774
vt 0.301905 0.654461
vt 0.895760 0.617968
vt 0.883354 0.799757
vt 0.301905 0.896639
vt 0.150953 0.873325
vt 0.301905 0.873325
vt 0.500000 0.603774
vt 0.650952 0.619692
vt 0.875582 0.981545
vt 0.908009 0.617968
vt 0.895760 0.799756
vt 0.500000 0.781972
vt 0.650952 0.822955
vt 0.301905 0.920916
vt 0.150953 0.896639
vt 0.650952 0.667089
vt 0.500000 0.739957
vt 0.650952 0.781972
vt 0.150953 0.714369
vt 0.748601 0.117752
vt 0.919405 0.346103
vt 0.581339 0.347682
vt 0.585711 0.178133
vt 0.747493 0.117752
vt 0.576689 0.346103
vt 0.000000 0.961479
vt 0.150953 0.741287
vt 0.801905 0.768443
vt 0.801905 0.785739
vt 0.650952 0.768443
vt 0.801905 0.799757
vt 0.650952 0.785739
vt 0.650952 0.799757
vt 0.650952 0.748727
vt 0.650952 0.727447
vt 0.801905 0.748727
vt 0.801905 0.727447
vt 0.650952 0.705461
vt 0.650952 0.683626
vt 0.801905 0.705461
vt 0.801905 0.683626
vt 0.650952 0.662798
vt 0.650952 0.643835
vt 0.801905 0.662798
vt 0.801905 0.643835
vt 0.650952 0.627594
vt 0.801905 0.627594
vt 0.650952 0.606707
vt 0.650952 0.603774
vt 0.801905 0.603774
vt 0.150953 0.794073
vt 0.150953 0.741287
vt 0.500000 0.734246
vt 0.650952 0.734246
vt 0.500000 0.727540
vt 0.650952 0.727540
vt 0.500000 0.739957
vt 0.486934 1.000000
vt 0.789749 0.981545
vt 0.349048 0.731419
vt 0.349048 0.707605
vt 0.500000 0.707605
vt 0.349048 0.683578
vt 0.500000 0.683578
vt 0.500000 0.660259
vt 0.349048 0.660259
vt 0.500000 0.731419
vt 0.349048 0.818212
vt 0.349048 0.792366
vt 0.500000 0.818212
vt 0.500000 0.603774
vt 0.897702 0.981545
vt 0.789748 0.981545
vt 0.150953 0.603774
vt 0.650952 0.603774
vt 0.908009 0.799756
vt 0.150953 0.920916
vt 0.650952 0.739957
vt 0.638183 0.019626
vt 0.650794 0.000683
vt 0.848196 0.000000
vt 0.862806 0.021508
vt 0.876738 0.047428
vt 0.891236 0.082601
vt 0.903414 0.126384
vt 0.910383 0.178132
vt 0.911653 0.178675
vt 0.915226 0.180318
vt 0.920750 0.183086
vt 0.927872 0.187001
vt 0.945497 0.198367
vt 0.931680 0.340013
vt 0.965276 0.214603
vt 0.962914 0.315009
vt 0.975090 0.224607
vt 0.978783 0.296336
vt 0.984385 0.235898
vt 0.992806 0.248500
vt 0.990412 0.279427
vt 1.000000 0.262437
vt 0.943043 0.332560
vt 0.919768 0.349868
vt 0.920774 0.360446
vt 0.922299 0.376757
vt 0.924219 0.397725
vt 0.926408 0.422272
vt 0.570871 0.410485
vt 0.928742 0.449320
vt 0.568234 0.438084
vt 0.573919 0.385408
vt 0.577401 0.364068
vt 0.931098 0.477791
vt 0.565988 0.466990
vt 0.933350 0.506607
vt 0.564111 0.495985
vt 0.935374 0.534692
vt 0.562582 0.523855
vt 0.937045 0.560966
vt 0.560481 0.571356
vt 0.938240 0.584353
vt 0.938833 0.603774
vt 0.559400 0.603774
vt 0.548158 0.323007
vt 0.569145 0.187296
vt 0.529963 0.305742
vt 0.528466 0.224555
vt 0.512959 0.285160
vt 0.505795 0.273852
vt 0.500000 0.261985
vt 0.547429 0.204813
vt 0.580663 0.180469
vt 0.592422 0.175517
vt 0.595430 0.146590
vt 0.601147 0.115775
vt 0.611410 0.078811
vt 0.627524 0.039259
vt 0.560720 0.534692
vt 0.562744 0.506608
vt 0.933512 0.523855
vt 0.564996 0.477791
vt 0.931983 0.495985
vt 0.567352 0.449320
vt 0.930106 0.466990
vt 0.569686 0.422272
vt 0.927860 0.438084
vt 0.925223 0.410485
vt 0.571875 0.397725
vt 0.922175 0.385408
vt 0.573795 0.376757
vt 0.914755 0.347682
vt 0.575320 0.360446
vt 0.576326 0.349869
vt 0.564414 0.340013
vt 0.568222 0.187001
vt 0.553051 0.332560
vt 0.550597 0.198367
vt 0.918693 0.364068
vt 0.559049 0.560966
vt 0.935613 0.571356
vt 0.557261 0.603774
vt 0.557854 0.584353
vt 0.936694 0.603774
vt 0.966131 0.305742
vt 0.947936 0.323007
vt 0.967628 0.224555
vt 0.926949 0.187296
vt 0.948665 0.204813
vt 0.990299 0.273852
vt 0.983135 0.285160
vt 0.996094 0.261985
vt 0.903672 0.175517
vt 0.915431 0.180469
vt 0.894947 0.115775
vt 0.900664 0.146590
vt 0.868570 0.039259
vt 0.884684 0.078811
vt 0.845300 0.000683
vt 0.857911 0.019626
vt 0.633288 0.021508
vt 0.647898 0.000000
vt 0.533180 0.315009
vt 0.517311 0.296336
vt 0.530818 0.214604
vt 0.505682 0.279427
vt 0.511709 0.235898
vt 0.521004 0.224607
vt 0.496094 0.262437
vt 0.503288 0.248500
vt 0.575344 0.183086
vt 0.580868 0.180318
vt 0.584441 0.178675
vt 0.592680 0.126384
vt 0.604858 0.082601
vt 0.619356 0.047428
vn 0.0031 -1.0000 0.0000
vn -0.9857 0.1683 0.0000
vn -0.9926 0.1212 0.0001
vn 0.9930 0.1177 0.0000
vn 0.9933 0.1159 0.0000
vn -0.9263 0.3768 0.0000
vn -0.9643 0.2649 0.0000
vn -0.3330 0.9429 -0.0000
vn -0.3894 0.9211 0.0000
vn 0.8062 0.5917 0.0000
vn 0.7720 0.6356 0.0000
vn 0.3427 0.9395 0.0000
vn 0.3314 0.9435 0.0000
vn 0.8139 0.5811 0.0000
vn 0.7436 0.6687 0.0000
vn 0.5157 0.8568 0.0000
vn 0.4411 0.8974 0.0000
vn 0.7027 0.7115 0.0000
vn 0.5387 -0.8425 -0.0000
vn 0.6491 -0.7607 -0.0000
vn 0.6030 0.7978 0.0000
vn -0.5705 -0.8213 -0.0000
vn -0.5228 -0.8525 -0.0000
vn -0.6628 -0.7488 -0.0000
vn 0.8675 0.4975 0.0000
vn 0.7376 -0.6752 -0.0000
vn 0.8014 -0.5981 -0.0000
vn -0.9984 0.0565 0.0000
vn -0.9991 0.0436 0.0000
vn 0.8288 -0.5595 -0.0000
vn -0.9615 0.2749 0.0000
vn -0.9726 0.2326 0.0000
vn 0.6765 0.7365 0.0000
vn 0.9230 0.3849 0.0000
vn -0.7515 -0.6597 -0.0000
vn -0.9862 0.1658 0.0000
vn -0.8604 -0.5096 -0.0000
vn -0.8283 -0.5603 -0.0000
vn -0.7028 0.7114 0.0000
vn -0.5028 0.8644 0.0000
vn -0.6089 0.7933 0.0000
vn -0.6991 0.7150 0.0000
vn -0.7396 0.6731 0.0000
vn 0.4331 -0.9014 -0.0000
vn -0.8114 0.5845 0.0000
vn -0.8705 0.4921 0.0000
vn 0.8476 0.5306 0.0000
vn 0.3838 -0.9234 -0.0000
vn 0.9701 0.2427 0.0000
vn -0.7822 0.6231 0.0000
vn 0.9866 0.1632 0.0000
vn -0.0000 0.0000 -1.0000
vn 0.0000 -0.0000 1.0000
vn -0.9926 0.1211 0.0001
vn 0.9974 0.0720 0.0000
vn 0.9986 0.0522 0.0000
vn 0.9992 0.0399 0.0000
vn 0.9964 0.0845 0.0000
vn 0.9957 0.0932 0.0000
vn 0.9950 0.0995 0.0000
vn 0.9945 0.1044 0.0000
vn 0.9941 0.1082 0.0000
vn 0.9938 0.1113 0.0000
vn 0.9935 0.1138 0.0000
vn 0.9929 0.1186 0.0000
vn -0.3332 0.9429 -0.0000
vn 0.3675 0.9300 0.0000
vn 0.3969 0.9179 0.0000
vn -0.9976 0.0687 0.0000
vn -0.9966 0.0823 0.0000
vn -0.9949 0.1006 0.0000
vn -0.9920 0.1265 0.0000
vn -0.9993 0.0370 0.0000
vn -0.0000 0.0001 -1.0000
vn -0.0001 0.0000 1.0000
usemtl SVGMat.013
s 1
f 194/1/1 216/2/1 192/3/1
f 219/4/2 140/5/3 137/6/2
f 170/7/4 174/8/5 221/9/5
f 229/10/6 135/11/7 133/12/6
f 141/13/8 203/14/9 142/15/9
f 130/16/10 252/17/11 126/18/11
f 247/19/12 245/20/13 143/21/12
f 154/22/14 215/23/15 153/24/15
f 148/25/16 206/26/17 147/27/17
f 124/28/18 225/29/18 129/30/18
f 166/31/19 262/32/20 164/33/20
f 150/34/21 234/35/16 148/25/16
f 263/36/22 171/37/23 165/38/22
f 163/39/24 263/36/22 165/38/22
f 132/40/25 258/41/10 130/16/10
f 162/42/26 256/43/27 160/44/27
f 200/45/28 235/46/29 186/47/28
f 160/44/27 223/48/30 156/49/30
f 135/11/7 219/4/2 137/6/2
f 172/50/31 240/51/32 173/52/32
f 153/24/15 241/53/33 151/54/33
f 134/55/34 244/56/25 132/40/25
f 164/33/20 257/57/26 162/42/26
f 161/58/35 264/59/24 163/39/24
f 173/52/32 248/60/36 176/61/36
f 158/62/37 251/63/38 159/64/38
f 125/65/39 213/66/39 123/67/39
f 146/68/40 236/69/41 149/70/41
f 237/71/42 157/72/43 152/73/42
f 167/74/44 255/75/19 166/31/19
f 127/76/45 230/77/46 131/78/46
f 155/79/47 214/80/14 154/22/14
f 159/64/38 261/81/35 161/58/35
f 230/77/46 133/12/6 131/78/46
f 168/82/48 254/83/44 167/74/44
f 149/70/41 237/71/42 152/73/42
f 136/84/49 243/85/34 134/55/34
f 128/86/50 259/87/45 127/76/45
f 151/54/33 266/88/21 150/34/21
f 138/89/51 260/90/49 136/84/49
f 142/15/9 265/91/40 146/68/40
f 80/92/52 101/93/52 104/94/52
f 13/95/53 1/96/53 39/97/53
f 194/1/1 204/98/1 216/2/1
f 219/4/2 201/99/54 140/5/3
f 188/100/55 190/101/56 198/102/55
f 190/101/56 191/103/57 197/104/56
f 198/102/55 190/101/56 197/104/56
f 191/103/57 217/105/57 197/104/56
f 198/102/55 199/106/58 188/100/55
f 199/106/58 210/107/59 187/108/58
f 188/100/55 199/106/58 187/108/58
f 185/109/59 187/108/58 210/107/59
f 210/107/59 211/110/60 185/109/59
f 211/110/60 208/111/61 183/112/60
f 185/109/59 211/110/60 183/112/60
f 181/113/61 183/112/60 208/111/61
f 208/111/61 209/114/62 181/113/61
f 209/114/62 242/115/63 179/116/62
f 181/113/61 209/114/62 179/116/62
f 177/117/63 179/116/62 242/115/63
f 242/115/63 220/118/64 177/117/63
f 220/118/64 221/9/5 175/119/64
f 177/117/63 220/118/64 175/119/64
f 174/8/5 175/119/64 221/9/5
f 221/9/5 233/120/4 170/7/4
f 233/120/4 231/121/65 169/122/65
f 169/122/65 170/7/4 233/120/4
f 229/10/6 218/123/7 135/11/7
f 141/13/8 202/124/66 203/14/9
f 130/16/10 258/41/10 252/17/11
f 143/21/12 144/125/67 222/126/67
f 144/125/67 145/127/68 207/128/68
f 145/127/68 147/27/17 206/26/17
f 207/128/68 222/126/67 144/125/67
f 222/126/67 247/19/12 143/21/12
f 145/127/68 206/26/17 207/128/68
f 245/20/13 139/129/13 143/21/12
f 154/22/14 214/80/14 215/23/15
f 148/25/16 234/35/16 206/26/17
f 124/28/18 212/130/18 225/29/18
f 166/31/19 255/75/19 262/32/20
f 150/34/21 266/88/21 234/35/16
f 263/36/22 238/131/23 171/37/23
f 163/39/24 264/59/24 263/36/22
f 132/40/25 244/56/25 258/41/10
f 162/42/26 257/57/26 256/43/27
f 184/132/69 182/133/70 195/134/70
f 182/133/70 180/135/71 228/136/71
f 228/136/71 180/135/71 227/137/72
f 178/138/72 176/61/36 248/60/36
f 186/47/28 184/132/69 196/139/69
f 180/135/71 178/138/72 227/137/72
f 178/138/72 248/60/36 227/137/72
f 228/136/71 195/134/70 182/133/70
f 184/132/69 195/134/70 196/139/69
f 193/140/73 189/141/29 205/142/73
f 189/141/29 186/47/28 235/46/29
f 205/142/73 189/141/29 235/46/29
f 196/139/69 200/45/28 186/47/28
f 160/44/27 256/43/27 223/48/30
f 135/11/7 218/123/7 219/4/2
f 172/50/31 239/143/31 240/51/32
f 153/24/15 215/23/15 241/53/33
f 134/55/34 243/85/34 244/56/25
f 164/33/20 262/32/20 257/57/26
f 161/58/35 261/81/35 264/59/24
f 173/52/32 240/51/32 248/60/36
f 158/62/37 249/144/37 251/63/38
f 125/65/39 253/145/39 213/66/39
f 146/68/40 265/91/40 236/69/41
f 237/71/42 250/146/43 157/72/43
f 167/74/44 254/83/44 255/75/19
f 127/76/45 259/87/45 230/77/46
f 155/79/47 224/147/47 214/80/14
f 159/64/38 251/63/38 261/81/35
f 230/77/46 229/10/6 133/12/6
f 168/82/48 232/148/48 254/83/44
f 149/70/41 236/69/41 237/71/42
f 136/84/49 260/90/49 243/85/34
f 128/86/50 226/149/50 259/87/45
f 151/54/33 241/53/33 266/88/21
f 138/89/51 246/150/51 260/90/49
f 142/15/9 203/14/9 265/91/40
f 118/151/52 95/152/52 80/92/52
f 80/92/52 114/153/52 78/154/52
f 78/154/52 108/155/52 80/92/52
f 108/155/52 93/156/52 80/92/52
f 93/156/52 84/157/52 80/92/52
f 84/157/52 110/158/52 80/92/52
f 110/158/52 109/159/52 101/93/52
f 109/159/52 92/160/52 101/93/52
f 92/160/52 73/161/52 101/93/52
f 73/161/52 72/162/52 101/93/52
f 72/162/52 102/163/52 115/164/52
f 102/163/52 122/165/52 91/166/52
f 72/162/52 115/164/52 101/93/52
f 122/165/52 106/167/52 117/168/52
f 106/167/52 83/169/52 117/168/52
f 83/169/52 82/170/52 67/171/52
f 82/170/52 94/172/52 67/171/52
f 67/171/52 117/168/52 83/169/52
f 117/168/52 91/166/52 122/165/52
f 91/166/52 116/173/52 102/163/52
f 116/173/52 115/164/52 102/163/52
f 101/93/52 100/174/52 104/94/52
f 100/174/52 90/175/52 104/94/52
f 90/175/52 89/176/52 104/94/52
f 89/176/52 107/177/52 104/94/52
f 107/177/52 75/178/52 97/179/52
f 75/178/52 74/180/52 98/181/52
f 107/177/52 111/182/52 105/183/52
f 74/180/52 77/184/52 62/185/52
f 77/184/52 76/186/52 63/187/52
f 74/180/52 62/185/52 98/181/52
f 76/186/52 66/188/52 68/189/52
f 66/188/52 65/190/52 81/191/52
f 76/186/52 68/189/52 63/187/52
f 65/190/52 64/192/52 81/191/52
f 64/192/52 85/193/52 71/194/52
f 71/194/52 81/191/52 64/192/52
f 81/191/52 68/189/52 66/188/52
f 63/187/52 62/185/52 77/184/52
f 98/181/52 97/179/52 75/178/52
f 97/179/52 111/182/52 107/177/52
f 105/183/52 104/94/52 107/177/52
f 104/94/52 79/195/52 120/196/52
f 79/195/52 121/197/52 103/198/52
f 121/197/52 119/199/52 103/198/52
f 119/199/52 113/200/52 103/198/52
f 113/200/52 112/201/52 103/198/52
f 103/198/52 96/202/52 79/195/52
f 96/202/52 120/196/52 79/195/52
f 120/196/52 70/203/52 104/94/52
f 70/203/52 69/204/74 104/94/52
f 69/204/74 87/205/52 80/92/52
f 87/205/52 86/206/52 80/92/52
f 86/206/52 88/207/52 80/92/52
f 88/207/52 99/208/52 80/92/52
f 99/208/52 118/151/52 80/92/52
f 80/92/52 110/158/52 101/93/52
f 69/204/74 80/92/52 104/94/52
f 56/209/53 54/210/53 55/211/53
f 54/210/53 52/212/53 53/213/53
f 52/212/53 50/214/53 51/215/53
f 50/214/53 48/216/53 49/217/53
f 47/218/53 46/219/53 45/220/53
f 48/216/53 46/219/53 47/218/53
f 46/219/53 44/221/53 41/222/53
f 44/221/53 43/223/53 41/222/53
f 43/223/53 40/224/53 41/222/53
f 39/97/53 38/225/53 20/226/53
f 38/225/53 37/227/53 21/228/53
f 40/224/53 39/97/53 41/222/53
f 46/219/53 41/222/53 42/229/53
f 45/220/53 46/219/53 42/229/53
f 57/230/53 56/209/53 58/231/53
f 54/210/53 53/213/53 55/211/53
f 60/232/53 59/233/53 61/234/53
f 59/233/53 57/230/53 58/231/53
f 58/231/53 61/234/53 59/233/53
f 55/211/53 58/231/53 56/209/53
f 49/217/53 51/215/53 50/214/53
f 51/215/53 53/213/53 52/212/53
f 47/218/53 49/217/53 48/216/53
f 34/235/53 36/236/53 25/237/53
f 36/236/53 41/222/53 19/238/53
f 25/237/53 36/236/53 22/239/53
f 30/240/53 32/241/53 25/237/53
f 32/241/53 34/235/53 25/237/53
f 25/237/53 29/242/53 30/240/53
f 19/238/53 22/239/53 36/236/53
f 14/243/75 15/244/53 41/222/53
f 15/244/53 19/238/53 41/222/53
f 10/245/53 12/246/53 1/96/53
f 12/246/53 14/243/75 1/96/53
f 6/247/53 8/248/53 1/96/53
f 8/248/53 10/245/53 1/96/53
f 4/249/53 3/250/53 1/96/53
f 3/250/53 6/247/53 1/96/53
f 5/251/53 2/252/53 1/96/53
f 38/225/53 21/228/53 20/226/53
f 37/227/53 35/253/53 21/228/53
f 35/253/53 33/254/53 23/255/53
f 33/254/53 31/256/53 26/257/53
f 24/258/53 33/254/53 26/257/53
f 31/256/53 28/259/53 27/260/53
f 27/260/53 26/257/53 31/256/53
f 24/258/53 23/255/53 33/254/53
f 23/255/53 21/228/53 35/253/53
f 20/226/53 18/261/53 39/97/53
f 18/261/53 17/262/53 39/97/53
f 17/262/53 16/263/53 39/97/53
f 13/95/53 11/264/53 1/96/53
f 11/264/53 9/265/53 1/96/53
f 16/263/53 13/95/53 39/97/53
f 1/96/53 14/243/75 41/222/53
f 7/266/53 5/251/53 1/96/53
f 9/265/53 7/266/53 1/96/53
f 1/96/53 41/222/53 39/97/53
